<?xml version="1.0" encoding="utf-8"?>
<svg version="1.1" xmlns:xlink="http://www.w3.org/1999/xlink" width="43px" height="43px" xmlns="http://www.w3.org/2000/svg">
  <g transform="matrix(1 0 0 1 -2008 -735 )">
    <path d="M 7.81818181818182 31.2727272727273  L 11.7272727272727 31.2727272727273  L 11.7272727272727 35.1818181818182  L 7.81818181818182 35.1818181818182  L 7.81818181818182 31.2727272727273  Z M 7.81818181818182 7.81818181818182  L 11.7272727272727 7.81818181818182  L 11.7272727272727 11.7272727272727  L 7.81818181818182 11.7272727272727  L 7.81818181818182 7.81818181818182  Z M 31.2727272727273 7.81818181818182  L 35.1818181818182 7.81818181818182  L 35.1818181818182 11.7272727272727  L 31.2727272727273 11.7272727272727  L 31.2727272727273 7.81818181818182  Z M 4 27  L 4 39  L 16 39  L 16 27  L 4 27  Z M 4 4  L 4 16  L 16 16  L 16 4  L 4 4  Z M 27 4  L 27 16  L 39 16  L 39 4  L 27 4  Z M 0 23  L 20 23  L 20 43  L 0 43  L 0 23  Z M 31.2727272727273 39.0909090909091  L 35.1818181818182 39.0909090909091  L 35.1818181818182 43  L 31.2727272727273 43  L 31.2727272727273 39.0909090909091  Z M 39.0909090909091 39.0909090909091  L 43 39.0909090909091  L 43 43  L 39.0909090909091 43  L 39.0909090909091 39.0909090909091  Z M 39.0909090909091 23.4545454545455  L 43 23.4545454545455  L 43 35  L 31.2727272727273 35  L 31.2727272727273 31.2727272727273  L 27 31.2727272727273  L 27 43  L 23 43  L 23 23  L 35.1818181818182 23  L 35.1818181818182 27.3636363636364  L 39.0909090909091 27.3636363636364  L 39.0909090909091 23.4545454545455  Z M 0 0  L 20 0  L 20 20  L 0 20  L 0 0  Z M 23 0  L 43 0  L 43 20  L 23 20  L 23 0  Z " fill-rule="nonzero" fill="#000000" stroke="none" transform="matrix(1 0 0 1 2008 735 )" />
  </g>
</svg>