<svg t="1618129769504" class="icon" viewBox="0 0 1024 1024" version="1.1" xmlns="http://www.w3.org/2000/svg" p-id="7967" width="200" height="200"><path d="M906.2 519.9L138.8 143.1c-35.4-17.4-66.6 5.1-61.2 44.2l78 564.8c8.2 59 61.7 89.3 116.4 65.7l184.2-79.2 110.1 125c29.4 38.1 72.3 29 90.3-24.6l51-152.5c5-14.9 23.5-31.8 38.9-35.5l149.7-36.2c63.3-15.4 68.6-66.2 10-94.9zM662.4 694.7l-40.5 134.4c-6.6 21.9-20.2 23.1-30.4 2.7l-46.1-92.7c-10.2-20.4-29.7-51.6-43.7-69.7l-388.1-503L643 627.6c17.3 15.1 26 45.2 19.4 67.1z" fill="#666666" p-id="7968"></path></svg>