<?xml version="1.0" encoding="utf-8"?>
<svg version="1.1" xmlns:xlink="http://www.w3.org/1999/xlink" width="13px" height="14px" xmlns="http://www.w3.org/2000/svg">
  <g transform="matrix(1 0 0 1 -338 -779 )">
    <path d="M 2.455375 3.8890625  C 2.455375 1.740625  4.265625 0  6.5 0  L 10.544625 0  L 10.544625 3.8890625  C 10.544625 6.0375  8.734375 7.778125  6.5 7.778125  C 4.265625 7.778125  2.455375 6.0375  2.455375 3.8890625  Z M 0.0292500000000002 11.278125  C 0.0276250000000003 9.775  1.295125 8.55625  2.86 8.55625  L 10.14 8.55625  C 11.70325 8.55625  12.97075 9.775  12.97075 11.278125  L 12.97075 11.6671875  C 12.97075 12.95625  11.883625 14  10.544625 14  L 2.455375 14  C 1.11475 14  0.0292500000000002 12.9546875  0.0292500000000002 11.6671875  L 0.0292500000000002 11.278125  Z " fill-rule="nonzero" fill="#ffffff" stroke="none" transform="matrix(1 0 0 1 338 779 )" />
  </g>
</svg>