<?xml version="1.0" encoding="utf-8"?>
<svg version="1.1" xmlns:xlink="http://www.w3.org/1999/xlink" width="13px" height="14px" xmlns="http://www.w3.org/2000/svg">
  <g transform="matrix(1 0 0 1 -155 -779 )">
    <path d="M 0.0448275862068956 6.3  C 0.0448275862068956 5.88  0.331724137931034 5.6  0.762068965517241 5.6  L 1.47931034482759 5.6  C 1.90965517241379 5.6  2.19655172413793 5.88  2.19655172413793 6.3  L 2.19655172413793 13.3  C 2.19655172413793 13.72  1.90965517241379 14  1.47931034482759 14  L 0.762068965517241 14  C 0.331724137931034 14  0.0448275862068956 13.72  0.0448275862068956 13.3  L 0.0448275862068956 6.3  Z M 3.63103448275862 0.7  C 3.63103448275862 0.28  3.91793103448276 0  4.34827586206897 0  L 5.06551724137931 0  C 5.49586206896552 0  5.78275862068966 0.28  6 0.7  L 6 13.3  C 5.78275862068966 13.72  5.49586206896552 14  5.06551724137931 14  L 4.34827586206897 14  C 3.91793103448276 14  3.63103448275862 13.72  3.63103448275862 13.3  L 3.63103448275862 0.7  Z M 7.21724137931034 4.2  C 7.21724137931034 3.78  7.50413793103448 3.5  7.93448275862069 3.5  L 8.65172413793104 3.5  C 9.08206896551724 3.5  9.36896551724138 3.78  9.36896551724138 4.2  L 9.36896551724138 13.3  C 9.36896551724138 13.72  9.08206896551724 14  8.65172413793104 14  L 7.93448275862069 14  C 7.50413793103448 14  7.21724137931034 13.72  7.21724137931034 13.3  L 7.21724137931034 4.2  Z M 10.8034482758621 8.4  C 10.8034482758621 7.98  11.0903448275862 7.7  11.5206896551724 7.7  L 12.2379310344828 7.7  C 12.668275862069 7.7  12.9551724137931 7.98  12.9551724137931 8.4  L 12.9551724137931 13.3  C 12.9551724137931 13.72  12.668275862069 14  12.2379310344828 14  L 11.5206896551724 14  C 11.0903448275862 14  10.8034482758621 13.72  10.8034482758621 13.3  L 10.8034482758621 8.4  Z " fill-rule="nonzero" fill="#ffffff" stroke="none" transform="matrix(1 0 0 1 155 779 )" />
  </g>
</svg>